<svg class="svg-icon" style="width: 1em; height: 1em;vertical-align: middle;fill: currentColor;overflow: hidden;" viewBox="0 0 1024 1024" version="1.1" xmlns="http://www.w3.org/2000/svg"><path d="M810.666667 170.666667h-85.333334V128a42.666667 42.666667 0 0 0-85.333333 0v42.666667H384V128a42.666667 42.666667 0 0 0-85.333333 0v42.666667H213.333333a128 128 0 0 0-128 128v512a128 128 0 0 0 128 128h597.333334a128 128 0 0 0 128-128V298.666667a128 128 0 0 0-128-128z m42.666666 640a42.666667 42.666667 0 0 1-42.666666 42.666666H213.333333a42.666667 42.666667 0 0 1-42.666666-42.666666v-298.666667h682.666666z m0-384H170.666667V298.666667a42.666667 42.666667 0 0 1 42.666666-42.666667h85.333334v42.666667a42.666667 42.666667 0 0 0 85.333333 0V256h256v42.666667a42.666667 42.666667 0 0 0 85.333333 0V256h85.333334a42.666667 42.666667 0 0 1 42.666666 42.666667z"  /></svg>