<svg width="169" height="170" viewBox="0 0 169 170" fill="none" xmlns="http://www.w3.org/2000/svg">
<circle opacity="0.1" cx="84.5" cy="85.2312" r="84.5" fill="url(#paint0_linear_233_106)"/>
<circle opacity="0.2" cx="84.5" cy="85.2311" r="75.2689" fill="url(#paint1_linear_233_106)"/>
<ellipse cx="84.5" cy="85.2311" rx="65.3277" ry="66.7479" fill="url(#paint2_linear_233_106)"/>
<g clip-path="url(#clip0_233_106)">
<path d="M90.8008 53.0355C90.8014 51.9707 90.5253 50.9246 90.0004 50.003C89.4755 49.0815 88.7205 48.3173 87.8117 47.7877C86.9029 47.2581 85.8727 46.9819 84.8251 46.987C83.7776 46.9921 82.75 47.2785 81.8463 47.817C80.9426 48.3555 80.1949 49.1271 79.6788 50.0537C79.1626 50.9803 78.8965 52.0291 78.9072 53.0938C78.9179 54.1586 79.2051 55.2016 79.7397 56.1173C80.2743 57.033 81.0374 57.7889 81.9517 58.3086L82.0749 54.2986C82.0753 53.5104 82.3836 52.7546 82.9321 52.1974C83.4805 51.6402 84.2242 51.3272 84.9996 51.3272H85.1656C85.4682 51.3271 85.7678 51.3876 86.0473 51.5052C86.3269 51.6228 86.5809 51.7952 86.7948 52.0127C87.0088 52.2301 87.1785 52.4882 87.2943 52.7724C87.4101 53.0565 87.4697 53.361 87.4697 53.6686V58.4575C88.4681 57.9607 89.3095 57.1893 89.8983 56.2309C90.4872 55.2725 90.7998 54.1654 90.8008 53.0355Z" fill="white"/>
<path d="M73.2807 73.8285C73.4054 73.9108 73.5496 73.9946 73.7061 74.0856C74.2379 74.3949 74.9121 74.7871 75.4496 75.4833C76.6133 76.9992 79.3096 80.3815 80.9661 82.1921M73.2807 73.8285L84.5805 85.0016C84.2845 84.6557 83.4303 84.0165 82.3845 83.3376C82.1995 83.2364 81.904 82.9767 81.6166 82.7241C81.3683 82.5059 81.126 82.293 80.9661 82.1921M73.2807 73.8285C72.866 73.5597 72.4746 73.3008 72.2493 72.9121L73.2807 73.8285ZM80.9661 82.1921L81.2281 81.9524C81.2182 81.9416 81.2083 81.9308 81.1983 81.9199C81.1837 81.9099 81.1695 81.9006 81.1556 81.8919L80.9661 82.1921ZM87.114 53.5905V53.6685V65.1113V66.1042L87.7436 65.3364C88.2148 64.7618 88.8474 64.3419 89.6951 64.2691L87.114 53.5905Z" stroke="white" stroke-width="0.710084"/>
<path d="M98.1234 63.0715L99.3036 64.4071C99.357 64.4682 99.4232 64.5164 99.4972 64.5482C99.5712 64.58 99.6513 64.5947 99.7316 64.5911C99.8119 64.5875 99.8904 64.5658 99.9614 64.5275C100.032 64.4892 100.094 64.4353 100.142 64.3697C102.443 61.128 103.679 57.2307 103.673 53.2332C103.673 42.6847 95.231 34.105 84.8561 34.105C84.1385 34.1051 83.4215 34.1457 82.7083 34.2264C74.0477 35.2069 67.0843 42.3113 66.1482 51.1201C65.6345 55.8142 66.8517 60.5351 69.5642 64.3697C69.6122 64.4354 69.6739 64.4894 69.745 64.5279C69.816 64.5663 69.8946 64.5882 69.975 64.5919C70.0555 64.5956 70.1357 64.5811 70.2099 64.5494C70.2841 64.5177 70.3504 64.4696 70.4041 64.4086L71.5828 63.0745C71.6635 62.9824 71.7112 62.8653 71.7181 62.7422C71.7251 62.6191 71.6909 62.4973 71.6211 62.3964C69.7121 59.5634 68.7386 56.1867 68.8415 52.7544C69.0781 44.2961 75.7786 37.3651 84.0898 36.9672C93.2793 36.509 100.875 43.9929 100.875 53.2332C100.874 56.5043 99.901 59.6988 98.0821 62.3972C98.0137 62.498 97.9805 62.6193 97.988 62.7416C97.9955 62.8638 98.0432 62.98 98.1234 63.0715Z" fill="white"/>
<path d="M92.8338 57.0874L94.0831 58.501C94.1424 58.5679 94.2169 58.6192 94.3001 58.6502C94.3834 58.6812 94.4728 58.6911 94.5606 58.679C94.6485 58.6669 94.7321 58.6331 94.8041 58.5807C94.8762 58.5282 94.9346 58.4586 94.9741 58.378C95.7682 56.7834 96.18 55.0205 96.1762 53.2332C96.1762 47.8112 92.3913 43.0765 87.173 41.9669C85.641 41.6393 84.0586 41.6393 82.5265 41.9669C77.312 43.0773 73.5271 47.8143 73.5271 53.2332C73.5237 55.0204 73.9356 56.7832 74.7291 58.378C74.7689 58.4586 74.8274 58.5282 74.8996 58.5806C74.9718 58.6331 75.0555 58.6668 75.1435 58.6789C75.2314 58.691 75.3209 58.6812 75.4042 58.6501C75.4876 58.6191 75.5622 58.5679 75.6216 58.501L76.8695 57.0874C76.9376 57.0098 76.9826 56.9141 76.9992 56.8115C77.0159 56.7088 77.0034 56.6035 76.9634 56.5078C76.5414 55.4693 76.3237 54.3568 76.3226 53.2332C76.3221 51.9532 76.6005 50.689 77.1378 49.5314C77.6751 48.3738 78.4579 47.3515 79.4301 46.538C80.4022 45.7245 81.5396 45.1399 82.7604 44.8263C83.9813 44.5128 85.2553 44.4779 86.4909 44.7243C87.7266 44.9708 88.8932 45.4923 89.907 46.2515C90.9208 47.0107 91.7565 47.9888 92.3543 49.1154C92.952 50.2419 93.2969 51.4891 93.3641 52.7673C93.4312 54.0454 93.2191 55.3229 92.7429 56.5078C92.7028 56.6033 92.6901 56.7084 92.7062 56.8109C92.7222 56.9135 92.7665 57.0093 92.8338 57.0874Z" fill="white"/>
</g>
<path d="M51.114 120.406C50.9367 121.003 50.6567 121.503 50.274 121.904C49.8913 122.305 49.4387 122.604 48.916 122.8C48.3933 122.996 47.8193 123.094 47.194 123.094C46.2793 123.094 45.486 122.903 44.814 122.52C44.1513 122.137 43.638 121.591 43.274 120.882C42.9193 120.173 42.742 119.323 42.742 118.334C42.742 117.345 42.9193 116.495 43.274 115.786C43.638 115.077 44.1513 114.531 44.814 114.148C45.486 113.765 46.27 113.574 47.166 113.574C47.8007 113.574 48.3747 113.663 48.888 113.84C49.4013 114.008 49.8353 114.269 50.19 114.624C50.554 114.979 50.82 115.427 50.988 115.968L49.238 116.71C49.0793 116.15 48.8367 115.753 48.51 115.52C48.1833 115.277 47.7633 115.156 47.25 115.156C46.746 115.156 46.3027 115.277 45.92 115.52C45.5467 115.763 45.2573 116.122 45.052 116.598C44.8467 117.065 44.744 117.643 44.744 118.334C44.744 119.015 44.8373 119.594 45.024 120.07C45.22 120.546 45.5047 120.905 45.878 121.148C46.2513 121.391 46.7087 121.512 47.25 121.512C47.754 121.512 48.188 121.377 48.552 121.106C48.9253 120.835 49.1867 120.425 49.336 119.874L51.114 120.406ZM54.4546 112.888V120.798C54.4546 121.125 54.5106 121.353 54.6226 121.484C54.7346 121.615 54.9213 121.68 55.1826 121.68C55.3413 121.68 55.472 121.671 55.5746 121.652C55.6773 121.624 55.808 121.587 55.9666 121.54L55.7986 122.8C55.64 122.893 55.4393 122.963 55.1966 123.01C54.9633 123.066 54.73 123.094 54.4966 123.094C53.8153 123.094 53.316 122.931 52.9986 122.604C52.6906 122.268 52.5366 121.736 52.5366 121.008V112.888H54.4546ZM60.2273 115.814C60.9367 115.814 61.5573 115.959 62.0893 116.248C62.6307 116.537 63.0507 116.953 63.3493 117.494C63.6573 118.035 63.8113 118.689 63.8113 119.454C63.8113 120.21 63.6573 120.863 63.3493 121.414C63.0507 121.955 62.6307 122.371 62.0893 122.66C61.5573 122.949 60.9367 123.094 60.2273 123.094C59.5273 123.094 58.9067 122.949 58.3653 122.66C57.824 122.371 57.3993 121.955 57.0913 121.414C56.7927 120.863 56.6433 120.21 56.6433 119.454C56.6433 118.689 56.7927 118.035 57.0913 117.494C57.3993 116.953 57.824 116.537 58.3653 116.248C58.9067 115.959 59.5273 115.814 60.2273 115.814ZM60.2273 117.242C59.8727 117.242 59.5693 117.326 59.3173 117.494C59.0747 117.653 58.888 117.895 58.7573 118.222C58.6267 118.549 58.5613 118.959 58.5613 119.454C58.5613 119.949 58.6267 120.359 58.7573 120.686C58.888 121.013 59.0747 121.26 59.3173 121.428C59.5693 121.587 59.8727 121.666 60.2273 121.666C60.5727 121.666 60.8667 121.587 61.1093 121.428C61.3613 121.26 61.5527 121.013 61.6833 120.686C61.814 120.359 61.8793 119.949 61.8793 119.454C61.8793 118.959 61.814 118.549 61.6833 118.222C61.5527 117.895 61.3613 117.653 61.1093 117.494C60.8667 117.326 60.5727 117.242 60.2273 117.242ZM68.5942 115.814C69.2195 115.814 69.7469 115.907 70.1762 116.094C70.6149 116.271 70.9649 116.519 71.2262 116.836C71.4969 117.144 71.6882 117.489 71.8002 117.872L70.0082 118.516C69.9149 118.096 69.7562 117.779 69.5322 117.564C69.3082 117.349 69.0049 117.242 68.6222 117.242C68.2675 117.242 67.9642 117.326 67.7122 117.494C67.4602 117.653 67.2689 117.9 67.1382 118.236C67.0075 118.563 66.9422 118.973 66.9422 119.468C66.9422 119.963 67.0075 120.373 67.1382 120.7C67.2782 121.027 67.4742 121.269 67.7262 121.428C67.9875 121.587 68.2909 121.666 68.6362 121.666C68.9162 121.666 69.1542 121.619 69.3502 121.526C69.5462 121.423 69.7049 121.279 69.8262 121.092C69.9569 120.905 70.0455 120.681 70.0922 120.42L71.8282 120.98C71.7255 121.4 71.5342 121.769 71.2542 122.086C70.9742 122.403 70.6149 122.651 70.1762 122.828C69.7375 123.005 69.2289 123.094 68.6502 123.094C67.9315 123.094 67.2969 122.949 66.7462 122.66C66.1955 122.371 65.7709 121.955 65.4722 121.414C65.1735 120.873 65.0242 120.219 65.0242 119.454C65.0242 118.689 65.1735 118.035 65.4722 117.494C65.7709 116.953 66.1909 116.537 66.7322 116.248C67.2735 115.959 67.8942 115.814 68.5942 115.814ZM80.4445 115.954L77.2105 119.328L76.8325 119.51L74.7325 121.764L74.7045 119.72L78.2605 115.954H80.4445ZM75.2365 112.888V122.954H73.3185V112.888H75.2365ZM77.4765 118.18L80.6125 122.954H78.4425L76.1605 119.3L77.4765 118.18ZM84.6603 123.094C83.923 123.094 83.279 122.949 82.7283 122.66C82.187 122.371 81.767 121.955 81.4683 121.414C81.1696 120.873 81.0203 120.219 81.0203 119.454C81.0203 118.689 81.1696 118.035 81.4683 117.494C81.767 116.953 82.1823 116.537 82.7143 116.248C83.2556 115.959 83.8716 115.814 84.5623 115.814C85.2716 115.814 85.8736 115.959 86.3683 116.248C86.863 116.528 87.241 116.915 87.5023 117.41C87.7636 117.895 87.8943 118.451 87.8943 119.076C87.8943 119.263 87.8896 119.44 87.8803 119.608C87.871 119.776 87.857 119.925 87.8383 120.056H82.2523V118.726H86.9983L86.0743 119.062C86.0743 118.474 85.939 118.021 85.6683 117.704C85.407 117.387 85.0336 117.228 84.5483 117.228C84.1936 117.228 83.8856 117.312 83.6243 117.48C83.3723 117.648 83.181 117.9 83.0503 118.236C82.9196 118.563 82.8543 118.978 82.8543 119.482C82.8543 119.977 82.9243 120.387 83.0643 120.714C83.2136 121.031 83.419 121.269 83.6803 121.428C83.951 121.587 84.273 121.666 84.6463 121.666C85.057 121.666 85.3883 121.587 85.6403 121.428C85.8923 121.269 86.0883 121.05 86.2283 120.77L87.7543 121.358C87.605 121.722 87.3763 122.035 87.0683 122.296C86.7696 122.557 86.4103 122.758 85.9903 122.898C85.5796 123.029 85.1363 123.094 84.6603 123.094ZM92.1657 123.094C91.5871 123.094 91.0691 122.949 90.6117 122.66C90.1637 122.371 89.8091 121.955 89.5477 121.414C89.2957 120.873 89.1697 120.224 89.1697 119.468C89.1697 118.693 89.3051 118.035 89.5757 117.494C89.8464 116.943 90.2104 116.528 90.6677 116.248C91.1344 115.959 91.6571 115.814 92.2357 115.814C92.8517 115.814 93.3604 115.991 93.7617 116.346C94.1631 116.701 94.4244 117.158 94.5457 117.718L94.3637 117.942V112.888H96.2817V122.954H94.5597L94.4337 120.826L94.6717 120.938C94.6064 121.377 94.4571 121.759 94.2237 122.086C93.9904 122.403 93.6964 122.651 93.3417 122.828C92.9871 123.005 92.5951 123.094 92.1657 123.094ZM92.7257 121.624C93.0617 121.624 93.3511 121.54 93.5937 121.372C93.8364 121.195 94.0231 120.938 94.1537 120.602C94.2937 120.266 94.3637 119.865 94.3637 119.398C94.3637 118.95 94.2984 118.572 94.1677 118.264C94.0371 117.947 93.8504 117.704 93.6077 117.536C93.3651 117.368 93.0804 117.284 92.7537 117.284C92.2311 117.284 91.8204 117.471 91.5217 117.844C91.2324 118.208 91.0877 118.745 91.0877 119.454C91.0877 120.163 91.2324 120.705 91.5217 121.078C91.8111 121.442 92.2124 121.624 92.7257 121.624ZM106.762 113.574C107.677 113.574 108.466 113.765 109.128 114.148C109.791 114.531 110.3 115.077 110.654 115.786C111.018 116.495 111.2 117.345 111.2 118.334C111.2 119.323 111.018 120.173 110.654 120.882C110.3 121.591 109.791 122.137 109.128 122.52C108.466 122.903 107.677 123.094 106.762 123.094C105.848 123.094 105.054 122.903 104.382 122.52C103.72 122.137 103.206 121.591 102.842 120.882C102.488 120.173 102.31 119.323 102.31 118.334C102.31 117.345 102.488 116.495 102.842 115.786C103.206 115.077 103.72 114.531 104.382 114.148C105.054 113.765 105.848 113.574 106.762 113.574ZM106.762 115.156C106.24 115.156 105.796 115.277 105.432 115.52C105.068 115.763 104.788 116.122 104.592 116.598C104.406 117.065 104.312 117.643 104.312 118.334C104.312 119.015 104.406 119.594 104.592 120.07C104.788 120.546 105.068 120.905 105.432 121.148C105.796 121.391 106.24 121.512 106.762 121.512C107.276 121.512 107.714 121.391 108.078 121.148C108.442 120.905 108.718 120.546 108.904 120.07C109.1 119.594 109.198 119.015 109.198 118.334C109.198 117.643 109.1 117.065 108.904 116.598C108.718 116.122 108.442 115.763 108.078 115.52C107.714 115.277 107.276 115.156 106.762 115.156ZM115.389 123.094C114.923 123.094 114.503 123.01 114.129 122.842C113.756 122.674 113.457 122.408 113.233 122.044C113.019 121.671 112.911 121.19 112.911 120.602V115.954H114.829V120.14C114.829 120.681 114.941 121.059 115.165 121.274C115.389 121.479 115.711 121.582 116.131 121.582C116.327 121.582 116.519 121.549 116.705 121.484C116.892 121.409 117.055 121.297 117.195 121.148C117.345 120.999 117.461 120.807 117.545 120.574C117.629 120.331 117.671 120.047 117.671 119.72V115.954H119.589V122.954H117.881L117.811 121.736C117.578 122.203 117.256 122.548 116.845 122.772C116.444 122.987 115.959 123.094 115.389 123.094ZM124.086 113.812V120.672C124.086 121.008 124.17 121.255 124.338 121.414C124.515 121.563 124.753 121.638 125.052 121.638C125.285 121.638 125.49 121.605 125.668 121.54C125.845 121.465 126.004 121.367 126.144 121.246L126.452 122.52C126.228 122.697 125.948 122.837 125.612 122.94C125.276 123.043 124.921 123.094 124.548 123.094C124.081 123.094 123.666 123.024 123.302 122.884C122.947 122.744 122.667 122.52 122.462 122.212C122.266 121.904 122.168 121.493 122.168 120.98V114.344L124.086 113.812ZM126.326 115.954V117.382H120.88V115.954H126.326Z" fill="white"/>
<path d="M63.456 104.312C62.5833 104.312 61.8976 103.996 61.399 103.366C60.9076 102.728 60.662 101.796 60.662 100.572C60.662 99.347 60.9076 98.4193 61.399 97.7887C61.8976 97.1507 62.5833 96.8317 63.456 96.8317C64.336 96.8317 65.0216 97.1507 65.513 97.7887C66.0116 98.4193 66.261 99.347 66.261 100.572C66.261 101.796 66.0116 102.728 65.513 103.366C65.0216 103.996 64.336 104.312 63.456 104.312ZM63.456 103.311C63.808 103.311 64.1013 103.212 64.336 103.014C64.578 102.808 64.7576 102.504 64.875 102.101C64.9996 101.69 65.062 101.18 65.062 100.572C65.062 99.963 64.9996 99.457 64.875 99.0537C64.7576 98.643 64.578 98.3387 64.336 98.1407C64.1013 97.9353 63.808 97.8327 63.456 97.8327C63.104 97.8327 62.807 97.9353 62.565 98.1407C62.3303 98.3387 62.1543 98.643 62.037 99.0537C61.9196 99.457 61.861 99.963 61.861 100.572C61.861 101.18 61.9196 101.69 62.037 102.101C62.1543 102.504 62.3303 102.808 62.565 103.014C62.807 103.212 63.104 103.311 63.456 103.311ZM70.3632 104.312C69.4905 104.312 68.8048 103.996 68.3062 103.366C67.8148 102.728 67.5692 101.796 67.5692 100.572C67.5692 99.347 67.8148 98.4193 68.3062 97.7887C68.8048 97.1507 69.4905 96.8317 70.3632 96.8317C71.2432 96.8317 71.9288 97.1507 72.4202 97.7887C72.9188 98.4193 73.1682 99.347 73.1682 100.572C73.1682 101.796 72.9188 102.728 72.4202 103.366C71.9288 103.996 71.2432 104.312 70.3632 104.312ZM70.3632 103.311C70.7152 103.311 71.0085 103.212 71.2432 103.014C71.4852 102.808 71.6648 102.504 71.7822 102.101C71.9068 101.69 71.9692 101.18 71.9692 100.572C71.9692 99.963 71.9068 99.457 71.7822 99.0537C71.6648 98.643 71.4852 98.3387 71.2432 98.1407C71.0085 97.9353 70.7152 97.8327 70.3632 97.8327C70.0112 97.8327 69.7142 97.9353 69.4722 98.1407C69.2375 98.3387 69.0615 98.643 68.9442 99.0537C68.8268 99.457 68.7682 99.963 68.7682 100.572C68.7682 101.18 68.8268 101.69 68.9442 102.101C69.0615 102.504 69.2375 102.808 69.4722 103.014C69.7142 103.212 70.0112 103.311 70.3632 103.311ZM75.4554 98.5917C75.7047 98.5917 75.9027 98.665 76.0494 98.8117C76.2034 98.951 76.2804 99.1417 76.2804 99.3837C76.2804 99.6257 76.2034 99.82 76.0494 99.9667C75.9027 100.113 75.7047 100.187 75.4554 100.187C75.1987 100.187 74.9934 100.113 74.8394 99.9667C74.6927 99.82 74.6194 99.6257 74.6194 99.3837C74.6194 99.1417 74.6927 98.951 74.8394 98.8117C74.9934 98.665 75.1987 98.5917 75.4554 98.5917ZM75.4554 102.717C75.7047 102.717 75.9027 102.79 76.0494 102.937C76.2034 103.076 76.2804 103.267 76.2804 103.509C76.2804 103.751 76.2034 103.945 76.0494 104.092C75.9027 104.238 75.7047 104.312 75.4554 104.312C75.1987 104.312 74.9934 104.238 74.8394 104.092C74.6927 103.945 74.6194 103.751 74.6194 103.509C74.6194 103.267 74.6927 103.076 74.8394 102.937C74.9934 102.79 75.1987 102.717 75.4554 102.717ZM80.5468 104.312C79.6741 104.312 78.9884 103.996 78.4898 103.366C77.9984 102.728 77.7528 101.796 77.7528 100.572C77.7528 99.347 77.9984 98.4193 78.4898 97.7887C78.9884 97.1507 79.6741 96.8317 80.5468 96.8317C81.4268 96.8317 82.1124 97.1507 82.6038 97.7887C83.1024 98.4193 83.3518 99.347 83.3518 100.572C83.3518 101.796 83.1024 102.728 82.6038 103.366C82.1124 103.996 81.4268 104.312 80.5468 104.312ZM80.5468 103.311C80.8988 103.311 81.1921 103.212 81.4268 103.014C81.6688 102.808 81.8484 102.504 81.9658 102.101C82.0904 101.69 82.1528 101.18 82.1528 100.572C82.1528 99.963 82.0904 99.457 81.9658 99.0537C81.8484 98.643 81.6688 98.3387 81.4268 98.1407C81.1921 97.9353 80.8988 97.8327 80.5468 97.8327C80.1948 97.8327 79.8978 97.9353 79.6558 98.1407C79.4211 98.3387 79.2451 98.643 79.1278 99.0537C79.0104 99.457 78.9518 99.963 78.9518 100.572C78.9518 101.18 79.0104 101.69 79.1278 102.101C79.2451 102.504 79.4211 102.808 79.6558 103.014C79.8978 103.212 80.1948 103.311 80.5468 103.311ZM87.454 104.312C86.5813 104.312 85.8957 103.996 85.397 103.366C84.9057 102.728 84.66 101.796 84.66 100.572C84.66 99.347 84.9057 98.4193 85.397 97.7887C85.8957 97.1507 86.5813 96.8317 87.454 96.8317C88.334 96.8317 89.0197 97.1507 89.511 97.7887C90.0097 98.4193 90.259 99.347 90.259 100.572C90.259 101.796 90.0097 102.728 89.511 103.366C89.0197 103.996 88.334 104.312 87.454 104.312ZM87.454 103.311C87.806 103.311 88.0993 103.212 88.334 103.014C88.576 102.808 88.7557 102.504 88.873 102.101C88.9977 101.69 89.06 101.18 89.06 100.572C89.06 99.963 88.9977 99.457 88.873 99.0537C88.7557 98.643 88.576 98.3387 88.334 98.1407C88.0993 97.9353 87.806 97.8327 87.454 97.8327C87.102 97.8327 86.805 97.9353 86.563 98.1407C86.3283 98.3387 86.1523 98.643 86.035 99.0537C85.9177 99.457 85.859 99.963 85.859 100.572C85.859 101.18 85.9177 101.69 86.035 102.101C86.1523 102.504 86.3283 102.808 86.563 103.014C86.805 103.212 87.102 103.311 87.454 103.311ZM92.5462 98.5917C92.7956 98.5917 92.9936 98.665 93.1402 98.8117C93.2942 98.951 93.3712 99.1417 93.3712 99.3837C93.3712 99.6257 93.2942 99.82 93.1402 99.9667C92.9936 100.113 92.7956 100.187 92.5462 100.187C92.2896 100.187 92.0842 100.113 91.9302 99.9667C91.7836 99.82 91.7102 99.6257 91.7102 99.3837C91.7102 99.1417 91.7836 98.951 91.9302 98.8117C92.0842 98.665 92.2896 98.5917 92.5462 98.5917ZM92.5462 102.717C92.7956 102.717 92.9936 102.79 93.1402 102.937C93.2942 103.076 93.3712 103.267 93.3712 103.509C93.3712 103.751 93.2942 103.945 93.1402 104.092C92.9936 104.238 92.7956 104.312 92.5462 104.312C92.2896 104.312 92.0842 104.238 91.9302 104.092C91.7836 103.945 91.7102 103.751 91.7102 103.509C91.7102 103.267 91.7836 103.076 91.9302 102.937C92.0842 102.79 92.2896 102.717 92.5462 102.717ZM97.6376 104.312C96.7649 104.312 96.0793 103.996 95.5806 103.366C95.0893 102.728 94.8436 101.796 94.8436 100.572C94.8436 99.347 95.0893 98.4193 95.5806 97.7887C96.0793 97.1507 96.7649 96.8317 97.6376 96.8317C98.5176 96.8317 99.2033 97.1507 99.6946 97.7887C100.193 98.4193 100.443 99.347 100.443 100.572C100.443 101.796 100.193 102.728 99.6946 103.366C99.2033 103.996 98.5176 104.312 97.6376 104.312ZM97.6376 103.311C97.9896 103.311 98.2829 103.212 98.5176 103.014C98.7596 102.808 98.9393 102.504 99.0566 102.101C99.1813 101.69 99.2436 101.18 99.2436 100.572C99.2436 99.963 99.1813 99.457 99.0566 99.0537C98.9393 98.643 98.7596 98.3387 98.5176 98.1407C98.2829 97.9353 97.9896 97.8327 97.6376 97.8327C97.2856 97.8327 96.9886 97.9353 96.7466 98.1407C96.5119 98.3387 96.3359 98.643 96.2186 99.0537C96.1013 99.457 96.0426 99.963 96.0426 100.572C96.0426 101.18 96.1013 101.69 96.2186 102.101C96.3359 102.504 96.5119 102.808 96.7466 103.014C96.9886 103.212 97.2856 103.311 97.6376 103.311ZM104.545 104.312C103.672 104.312 102.986 103.996 102.488 103.366C101.996 102.728 101.751 101.796 101.751 100.572C101.751 99.347 101.996 98.4193 102.488 97.7887C102.986 97.1507 103.672 96.8317 104.545 96.8317C105.425 96.8317 106.11 97.1507 106.602 97.7887C107.1 98.4193 107.35 99.347 107.35 100.572C107.35 101.796 107.1 102.728 106.602 103.366C106.11 103.996 105.425 104.312 104.545 104.312ZM104.545 103.311C104.897 103.311 105.19 103.212 105.425 103.014C105.667 102.808 105.846 102.504 105.964 102.101C106.088 101.69 106.151 101.18 106.151 100.572C106.151 99.963 106.088 99.457 105.964 99.0537C105.846 98.643 105.667 98.3387 105.425 98.1407C105.19 97.9353 104.897 97.8327 104.545 97.8327C104.193 97.8327 103.896 97.9353 103.654 98.1407C103.419 98.3387 103.243 98.643 103.126 99.0537C103.008 99.457 102.95 99.963 102.95 100.572C102.95 101.18 103.008 101.69 103.126 102.101C103.243 102.504 103.419 102.808 103.654 103.014C103.896 103.212 104.193 103.311 104.545 103.311Z" fill="white"/>
<defs>
<linearGradient id="paint0_linear_233_106" x1="84.5" y1="0.731201" x2="84.5" y2="169.731" gradientUnits="userSpaceOnUse">
<stop stop-color="#9C7257"/>
<stop offset="1" stop-color="#E7B594"/>
</linearGradient>
<linearGradient id="paint1_linear_233_106" x1="84.5" y1="9.96216" x2="84.5" y2="160.5" gradientUnits="userSpaceOnUse">
<stop stop-color="#9C7257"/>
<stop offset="1" stop-color="#E7B594"/>
</linearGradient>
<linearGradient id="paint2_linear_233_106" x1="84.5" y1="18.4832" x2="84.5" y2="151.979" gradientUnits="userSpaceOnUse">
<stop stop-color="#9C7257"/>
<stop offset="1" stop-color="#E7B594"/>
</linearGradient>
<clipPath id="clip0_233_106">
<rect width="37.6345" height="53.2563" fill="white" transform="translate(66.0378 34.105)"/>
</clipPath>
</defs>
</svg>
