<svg xmlns="http://www.w3.org/2000/svg" width="23.245" height="18.076" viewBox="0 0 23.245 18.076">
  <path id="Icon_awesome-home" data-name="Icon awesome-home" d="M11.313,6.943,3.873,13.07v6.613a.646.646,0,0,0,.646.646l4.522-.012a.646.646,0,0,0,.642-.646V15.81a.646.646,0,0,1,.646-.646h2.583a.646.646,0,0,1,.646.646v3.859a.646.646,0,0,0,.646.648l4.52.013a.646.646,0,0,0,.646-.646V13.066L11.931,6.943A.492.492,0,0,0,11.313,6.943Zm11.752,4.165L19.692,8.327V2.738a.484.484,0,0,0-.484-.484h-2.26a.484.484,0,0,0-.484.484v2.93L12.851,2.7a1.937,1.937,0,0,0-2.461,0L.175,11.108a.484.484,0,0,0-.065.682l1.029,1.251a.484.484,0,0,0,.682.066l9.492-7.818a.492.492,0,0,1,.617,0l9.492,7.818a.484.484,0,0,0,.682-.065l1.029-1.251a.484.484,0,0,0-.069-.683Z" transform="translate(0.001 -2.254)" fill="#552bd5"/>
</svg>
